<?xml version="1.0" encoding="UTF-8"?>
<!DOCTYPE svg PUBLIC "-//W3C//DTD SVG 1.1//EN" "http://www.w3.org/Graphics/SVG/1.1/DTD/svg11.dtd">
<!-- Creator: CorelDRAW X7 -->
<svg xmlns="http://www.w3.org/2000/svg" xml:space="preserve" width="513px" height="71px" version="1.1" shape-rendering="geometricPrecision" text-rendering="geometricPrecision" image-rendering="optimizeQuality" fill-rule="evenodd" clip-rule="evenodd"
viewBox="0 0 139 19"
 xmlns:xlink="http://www.w3.org/1999/xlink">
 <g id="Слой_x0020_1">
  <metadata id="CorelCorpID_0Corel-Layer"/>
  <path fill="#2B2A29" fill-rule="nonzero" d="M6 16c1,0 1,-4 1,-7 0,-3 0,-6 -1,-6 -2,0 -2,3 -2,6 0,3 0,7 2,7zm0 3c-5,0 -6,-4 -6,-10 0,-6 2,-9 6,-9 4,0 5,3 5,9 0,6 -1,10 -5,10zm11 0c-2,0 -4,0 -5,-1l1 -3c1,0 2,1 4,1 1,0 3,-1 3,-3 0,-2 -2,-2 -4,-2l-2 0 0 -11 9 0 -1 4 -5 0 0 3 1 0c3,0 6,2 6,6 0,4 -3,6 -7,6zm14 -3c1,0 1,-4 1,-7 0,-3 0,-6 -1,-6 -2,0 -2,3 -2,6 0,3 0,7 2,7zm0 3c-5,0 -6,-4 -6,-10 0,-6 2,-9 6,-9 4,0 5,3 5,9 0,6 -1,10 -5,10zm12 -3l2 -3c2,-2 4,-5 4,-7 0,-2 -1,-3 -2,-3 -1,0 -2,1 -3,2l-1 -3c1,-1 3,-2 5,-2 3,0 6,2 6,5 0,3 -1,5 -4,8l-2 2 6 0 0 4 -11 0 0 -3zm18 0c1,0 1,-4 1,-7 0,-3 0,-6 -1,-6 -1,0 -2,3 -2,6 0,3 1,7 2,7zm0 3c-5,0 -6,-4 -6,-10 0,-6 2,-9 6,-9 4,0 5,3 5,9 0,6 -1,10 -5,10zm9 0c0,-6 2,-11 5,-15l-7 0 0 -4 11 0 0 2c-4,6 -4,11 -5,17l-4 0zm17 0c1,-6 3,-11 5,-15l-7 0 0 -4 12 0 0 2c-4,6 -5,11 -5,17l-5 0zm13 0c0,-6 2,-11 5,-15l-7 0 0 -4 11 0 0 2c-3,6 -4,11 -5,17l-4 0zm15 -3l3 -3c2,-2 4,-5 4,-7 0,-2 -1,-3 -2,-3 -1,0 -2,1 -4,2l-1 -3c2,-1 3,-2 5,-2 4,0 6,2 6,5 0,3 0,5 -3,8l-2 2 5 0 0 4 -11 0 0 -3zm18 0c2,0 2,-4 2,-7 0,-3 0,-6 -2,-6 -1,0 -1,3 -1,6 0,3 0,7 1,7zm0 3c-4,0 -5,-4 -5,-10 0,-6 1,-9 5,-9 4,0 6,3 6,9 0,6 -1,10 -6,10z"/>
 </g>
</svg>
