<?xml version="1.0" encoding="UTF-8"?>
<!DOCTYPE svg PUBLIC "-//W3C//DTD SVG 1.1//EN" "http://www.w3.org/Graphics/SVG/1.1/DTD/svg11.dtd">
<!-- Creator: CorelDRAW X7 -->
<svg xmlns="http://www.w3.org/2000/svg" xml:space="preserve" width="1336px" height="189px" version="1.1" shape-rendering="geometricPrecision" text-rendering="geometricPrecision" image-rendering="optimizeQuality" fill-rule="evenodd" clip-rule="evenodd"
viewBox="0 0 1357 192"
 xmlns:xlink="http://www.w3.org/1999/xlink">
 <g id="Слой_x0020_1">
  <metadata id="CorelCorpID_0Corel-Layer"/>
  <path fill="#FECA00" d="M2 5l-1 122c0,10 -2,32 0,41 28,1 57,1 85,1 27,0 56,1 84,2 168,1 340,8 508,9 112,1 225,5 338,6 27,0 57,2 84,2 28,0 57,0 83,2 28,1 58,0 86,1l86 1c0,-29 0,-59 0,-88 0,-5 1,-7 2,-20l0 -54c0,-6 0,-6 -6,-6 -27,1 -58,-1 -85,-1l-169 -3c-57,-1 -113,-3 -170,-3 -25,0 -57,-1 -83,-2 -55,-2 -111,-1 -167,-3 -28,-1 -57,-1 -86,-1 -53,0 -113,-3 -167,-4 -28,0 -57,0 -85,-1 -83,-1 -169,-4 -252,-5 -18,0 -71,-2 -84,0l-1 4z"/>
  <polygon fill="#2B2A29" fill-rule="nonzero" points="62,67 48,67 48,54 95,54 92,67 80,67 80,123 62,123 "/>
  <path id="1" fill="#2B2A29" fill-rule="nonzero" d="M97 109c3,3 6,3 9,3 1,0 4,0 5,-1 1,-1 2,-3 2,-5 0,-1 0,-2 -1,-3 -2,-2 -4,-2 -6,-2l-6 0 2 -10 4 0c2,0 3,0 5,-1 1,-1 1,-3 1,-4 0,-2 -1,-3 -2,-4 -1,-2 -3,-2 -5,-2 -1,0 -4,1 -8,3l-3 -11c2,-1 5,-2 8,-2 2,0 3,0 5,0 5,0 11,0 15,3 3,1 6,5 6,11 0,2 0,4 -1,6 -1,2 -3,4 -6,6 2,0 4,1 6,3 1,2 2,5 2,8 0,3 0,5 -1,8 -1,2 -3,4 -5,5 -4,3 -10,4 -15,4 -4,0 -9,-1 -15,-4l4 -11z"/>
  <path id="2" fill="#2B2A29" fill-rule="nonzero" d="M162 110c7,0 9,-11 9,-23 0,-12 -2,-20 -9,-20 -7,0 -9,8 -9,20 0,12 2,23 9,23zm0 14c-19,0 -28,-15 -28,-37 0,-20 9,-34 28,-34 19,0 28,14 28,34 0,22 -9,37 -28,37z"/>
  <path id="3" fill="#2B2A29" fill-rule="nonzero" d="M222 109c6,0 9,-2 9,-7 0,-5 -3,-7 -8,-7l-4 0 3 -12 0 0c6,0 7,-4 7,-8 0,-4 -2,-8 -10,-8l-4 0 0 42 7 0zm-24 -55l24 0c16,0 25,6 25,19 0,7 -4,12 -9,14 5,1 11,6 11,17 0,11 -9,19 -20,19l-31 0 0 -69z"/>
  <path id="4" fill="#2B2A29" fill-rule="nonzero" d="M274 100l0 -7 22 -18 0 12 -9 10 9 12 0 12 -22 -21zm23 0l0 -7 22 -18 0 12 -8 10 8 12 0 12 -22 -21z"/>
  <polygon id="5" fill="#2B2A29" fill-rule="nonzero" points="383,54 383,123 365,123 365,67 347,67 347,123 329,123 329,54 "/>
  <path id="6" fill="#2B2A29" fill-rule="nonzero" d="M414 113c6,0 9,-9 9,-17 0,-12 -4,-15 -9,-15 -3,0 -4,1 -5,2l0 28c1,1 3,2 5,2zm-21 -42l16 -1 0 4c2,-2 6,-4 11,-4 12,0 20,8 20,25 0,16 -10,29 -25,29 -1,0 -4,0 -6,-2l0 21 -16 0 0 -72z"/>
  <path id="7" fill="#2B2A29" fill-rule="nonzero" d="M445 95c0,-4 1,-13 8,-19 3,-3 8,-6 17,-6 9,0 15,3 18,6 6,6 7,15 7,19 0,8 -2,15 -6,20 -2,3 -5,5 -8,7 -3,1 -7,2 -11,2 -9,0 -15,-4 -19,-9 -4,-5 -6,-12 -6,-20zm17 1c0,4 1,8 2,11 1,2 1,3 2,4 1,1 3,2 4,2 2,0 5,-1 6,-6 1,-2 1,-3 2,-5 0,-2 0,-4 0,-6 0,-4 0,-8 -2,-11 -1,-4 -4,-5 -6,-5 -1,0 -2,1 -3,2 -2,1 -2,2 -3,3 -1,3 -2,7 -2,11z"/>
  <polygon id="8" fill="#2B2A29" fill-rule="nonzero" points="535,93 528,107 524,107 516,95 516,123 502,123 502,71 516,71 527,91 537,71 551,71 551,123 535,123 "/>
  <path id="9" fill="#2B2A29" fill-rule="nonzero" d="M561 71l16 -1 0 53 -16 0 0 -52zm8 -8c-5,0 -9,-2 -9,-7 0,-5 4,-8 9,-8 5,0 8,3 8,8 0,5 -3,7 -8,7z"/>
  <polygon id="10" fill="#2B2A29" fill-rule="nonzero" points="602,70 602,90 615,90 615,71 632,70 632,123 615,123 615,101 602,101 602,123 586,123 586,71 "/>
  <path id="11" fill="#2B2A29" fill-rule="nonzero" d="M641 71l16 -1 0 43 4 0c2,0 4,-1 5,-2 0,-1 1,-2 1,-3 1,-1 1,-2 1,-3 0,-2 0,-4 -2,-6 -1,0 -1,-1 -2,-1 -1,0 -2,-1 -3,-1l-2 0 3 -10 2 0c4,0 10,1 14,4 2,2 3,4 4,6 1,3 2,6 2,8 0,3 -1,6 -2,9 -1,2 -2,4 -4,5 -4,3 -9,4 -14,4l-23 0 0 -52z"/>
  <polygon id="12" fill="#2B2A29" fill-rule="nonzero" points="711,54 747,54 744,67 729,67 729,81 743,81 743,95 729,95 729,109 746,109 746,123 711,123 "/>
  <polygon id="13" fill="#2B2A29" fill-rule="nonzero" points="771,70 771,90 784,90 784,71 801,70 801,123 784,123 784,101 771,101 771,123 755,123 755,71 "/>
  <path id="14" fill="#2B2A29" fill-rule="nonzero" d="M849 120c-2,1 -5,2 -7,3 -1,0 -4,1 -10,1 -4,0 -11,-1 -17,-6 -5,-5 -8,-13 -8,-22 0,-10 4,-16 7,-20 4,-4 10,-6 17,-6 7,0 12,2 15,5 3,3 5,7 5,13l0 2c0,2 0,6 -2,11l-25 0c0,2 1,5 3,7 2,4 5,4 8,4 5,0 7,-1 10,-3l4 11zm-13 -32c0,-2 0,-8 -5,-8 -1,0 -2,1 -3,1 -1,1 -2,2 -2,3 -1,0 -2,3 -2,7l12 0 0 -3z"/>
  <path id="15" fill="#2B2A29" fill-rule="nonzero" d="M879 113c7,0 9,-9 9,-17 0,-12 -4,-15 -9,-15 -3,0 -4,1 -5,2l0 28c1,1 3,2 5,2zm-21 -42l16 -1 0 4c2,-2 6,-4 11,-4 12,0 20,8 20,25 0,16 -10,29 -25,29 0,0 -4,0 -6,-2l0 21 -16 0 0 -72z"/>
  <polygon id="16" fill="#2B2A29" fill-rule="nonzero" points="946,71 944,83 929,83 929,123 913,123 913,71 "/>
  <path id="17" fill="#2B2A29" fill-rule="nonzero" d="M949 95c0,-4 1,-13 7,-19 3,-3 9,-6 18,-6 9,0 14,3 17,6 7,6 8,15 8,19 0,8 -3,15 -6,20 -3,3 -5,5 -9,7 -3,1 -7,2 -10,2 -10,0 -15,-4 -19,-9 -4,-5 -6,-12 -6,-20zm17 1c0,4 0,8 2,11 0,2 1,3 2,4 1,1 2,2 4,2 1,0 4,-1 6,-6 0,-2 1,-3 1,-5 0,-2 0,-4 0,-6 0,-4 0,-8 -1,-11 -2,-4 -5,-5 -6,-5 -2,0 -3,1 -4,2 -1,1 -2,2 -2,3 -2,3 -2,7 -2,11z"/>
  <polygon id="18" fill="#2B2A29" fill-rule="nonzero" points="1079,54 1079,123 1061,123 1061,67 1044,67 1044,123 1026,123 1026,54 "/>
  <path id="19" fill="#2B2A29" fill-rule="nonzero" d="M1085 112c0,1 1,1 2,1 2,0 3,0 4,-2 1,-1 2,-3 3,-9 1,-9 2,-25 2,-31l37 0 0 52 -16 0 0 -40 -7 0c0,6 0,18 -2,24 0,3 -2,11 -6,14 -3,3 -7,3 -10,3 -2,0 -5,0 -7,-1l0 -11z"/>
  <path id="20" fill="#2B2A29" fill-rule="nonzero" d="M1161 101l0 22 -17 0 0 -52 17 -1 0 20 6 0c0,-2 1,-3 1,-4 1,-4 3,-7 6,-10 3,-3 8,-6 17,-6 9,0 14,3 17,6 3,3 5,6 6,10 1,3 2,6 2,9 0,7 -2,15 -6,20 -2,3 -5,5 -8,7 -4,1 -7,2 -11,2 -10,0 -16,-5 -18,-9 -3,-4 -5,-9 -6,-14l-6 0zm22 -5c0,4 1,8 2,11 1,2 1,3 2,4 1,1 3,2 4,2 2,0 5,-1 6,-6 1,-2 1,-3 2,-5 0,-2 0,-4 0,-6 0,-4 0,-8 -2,-11 0,-1 -1,-2 -2,-3 -1,-1 -3,-2 -4,-2 -1,0 -2,1 -3,2 -2,1 -2,2 -3,3 -1,2 -1,4 -1,6 0,1 -1,3 -1,5z"/>
  <path id="21" fill="#2B2A29" fill-rule="nonzero" d="M1257 120c-5,3 -9,4 -13,4 -5,0 -13,-1 -18,-8 -4,-4 -6,-11 -6,-19 0,-7 1,-14 7,-20 3,-3 6,-5 10,-6 2,-1 5,-1 8,-1 2,0 5,0 8,1 2,0 3,0 4,1l-4 11c-1,-2 -3,-2 -6,-2 -2,0 -5,1 -7,4 -3,3 -3,8 -3,11 0,2 0,3 1,5 0,2 0,3 1,5 2,4 5,6 7,6 3,0 5,-1 7,-3l4 11z"/>
  <path id="22" fill="#2B2A29" fill-rule="nonzero" d="M1263 109l9 -12 -9 -10 0 -12 22 18 0 7 -22 21 0 -12zm23 0l9 -12 -9 -10 0 -12 23 18 0 7 -23 21 0 -12z"/>
 </g>
</svg>
