<?xml version="1.0" encoding="UTF-8"?>
<!DOCTYPE svg PUBLIC "-//W3C//DTD SVG 1.1//EN" "http://www.w3.org/Graphics/SVG/1.1/DTD/svg11.dtd">
<!-- Creator: CorelDRAW X7 -->
<svg xmlns="http://www.w3.org/2000/svg" xml:space="preserve" width="1001px" height="843px" version="1.1" shape-rendering="geometricPrecision" text-rendering="geometricPrecision" image-rendering="optimizeQuality" fill-rule="evenodd" clip-rule="evenodd"
viewBox="0 0 579 488"
 xmlns:xlink="http://www.w3.org/1999/xlink">
 <g id="Слой_x0020_1">
  <metadata id="CorelCorpID_0Corel-Layer"/>
  <g id="_773469824">
   <path fill="#2B2A29" fill-rule="nonzero" d="M98 41c-12,0 -18,-9 -18,-21 0,-12 7,-20 18,-20 4,0 6,1 8,2l-3 8c-1,-1 -2,-2 -5,-2 -4,0 -7,5 -7,12 0,8 3,13 8,13 3,0 4,-1 5,-2l2 8c-2,1 -5,2 -8,2zm26 -8c4,0 5,-6 5,-13 0,-7 -1,-12 -5,-12 -4,0 -6,5 -6,12 0,7 2,13 6,13zm0 8c-11,0 -16,-9 -16,-21 0,-12 5,-20 16,-20 10,0 16,8 16,20 0,12 -6,21 -16,21zm30 -40l0 15 10 0 0 -15 11 0 0 39 -11 0 0 -15 -10 0 0 15 -10 0 0 -39 10 0zm24 39l6 -13c1,-2 2,-3 3,-3 -1,-1 -2,-1 -3,-2 -1,0 -2,-1 -2,-2 -2,-2 -2,-4 -2,-7 0,-4 1,-7 3,-9 4,-3 7,-3 11,-3l15 0 0 39 -10 0 0 -31 -3 0c-2,0 -4,0 -5,1 0,0 -1,1 -1,2 0,1 0,1 0,2 0,2 0,3 1,4 1,1 2,1 4,1l2 0 -1 7 -1 0c-1,0 -1,1 -2,3l-5 12 -10 -1zm47 -39l0 12c0,1 0,3 1,4 0,1 1,1 1,1 1,1 2,1 2,1 1,0 1,0 2,-1 1,0 1,0 2,0 0,0 1,-1 1,-1l0 -16 11 0 0 39 -11 0 0 -15c-2,1 -5,1 -8,1 -4,0 -6,-1 -8,-3 -1,-1 -2,-2 -2,-4 -1,-1 -1,-3 -1,-4l0 -14 10 0zm36 0l0 15 10 0 0 -15 10 0 0 39 -10 0 0 -15 -10 0 0 15 -10 0 0 -39 10 0zm27 0l10 0 0 39 -10 0 0 -39zm58 0l0 39 -11 0 0 -31 -10 0 0 31 -10 0 0 -39 31 0zm22 26l-4 -11 -3 11 7 0zm-7 -26l9 0 12 39 -10 0 -2 -5 -11 0 -2 5 -9 0 13 -39zm34 0l0 15 10 0 0 -15 10 0 0 39 -10 0 0 -15 -10 0 0 15 -11 0 0 -39 11 0zm26 0l21 0 -2 7 -9 0 0 8 9 0 0 8 -9 0 0 8 10 0 0 8 -20 0 0 -39zm23 31c1,0 1,0 2,0 1,0 2,0 3,-1 1,-1 1,-3 2,-8 1,-7 1,-17 1,-22l26 0 0 39 -10 0 0 -31 -6 0c0,4 -1,14 -2,20 -1,2 -2,7 -5,10 -2,1 -4,2 -7,2 -1,0 -2,-1 -4,-1l0 -8zm40 -31l10 0 0 39 -10 0 0 -39zm-416 95l0 -16 -4 0c0,5 -1,8 -1,11 -1,2 -1,3 -2,5l7 0zm9 -23l0 23 4 0 0 14 -8 1 0 -9 -16 0 0 8 -8 1 0 -15 2 0c2,-2 2,-4 3,-7 1,-4 2,-11 2,-16l21 0zm4 23c0,0 1,1 2,1 0,0 1,-1 2,-1 0,-1 1,-2 1,-6 1,-5 1,-14 2,-17l21 0 0 29 -10 0 0 -22 -3 0c0,3 -1,10 -1,14 -1,1 -2,6 -4,8 -2,1 -4,1 -6,1 -1,0 -2,0 -4,-1l0 -6zm31 6l4 -9c0,-1 1,-2 3,-3 -1,0 -2,0 -3,-1 -2,-2 -3,-4 -3,-7 0,-4 2,-6 4,-7 1,-1 1,-1 2,-1 2,-1 3,-1 5,-1l14 0 0 29 -9 0 0 -23 -1 0c-1,0 -2,0 -3,0 0,0 -1,0 -1,1 -1,0 -1,1 -1,3 0,0 0,1 0,1 0,1 0,1 1,2 1,1 2,1 3,1l1 0 -2 5 0 0c-1,0 -2,1 -2,2l-3 9 -9 -1zm58 -6l0 -16 -3 0c-1,5 -1,8 -2,11 -1,2 -1,3 -2,5l7 0zm9 -23l0 23 5 0 0 14 -9 1 0 -9 -15 0 0 8 -9 1 0 -15 3 0c1,-2 2,-4 2,-7 2,-4 2,-11 2,-16l21 0zm6 14c0,-3 0,-8 4,-11 2,-2 5,-4 10,-4 5,0 8,2 10,4 4,3 4,8 4,11 0,4 -1,8 -3,11 -2,2 -3,3 -5,4 -2,0 -4,1 -6,1 -5,0 -9,-2 -11,-5 -2,-3 -3,-7 -3,-11zm10 0c0,2 0,5 0,6 1,1 1,2 2,3 0,0 1,1 2,1 1,0 3,-1 3,-4 1,-1 1,-2 1,-3 0,-1 0,-2 0,-3 0,-2 0,-4 -1,-6 -1,-2 -2,-3 -3,-3 -1,0 -1,0 -2,1 -1,0 -1,1 -2,2 0,2 0,4 0,6zm41 -1l-4 8 -3 0 -4 -8 0 16 -8 0 0 -29 8 0 7 11 5 -11 8 0 0 29 -9 0 0 -16zm31 16c-2,5 -3,8 -4,9 -3,3 -6,3 -9,3 -3,0 -4,0 -5,0l0 -7c2,1 3,1 4,1 2,0 3,0 4,-1 1,-1 1,-2 2,-3l-11 -31 9 -1 6 19 4 -19 8 1 -8 29zm19 -22l0 -7 25 0 -2 7 -6 0 0 22 -10 0 0 -22 -7 0zm42 20c-2,2 -5,3 -7,3 -2,0 -4,-1 -6,-2 -2,-2 -3,-4 -3,-7 0,-3 1,-5 4,-7 1,-1 3,-2 5,-2 1,0 2,-1 3,-1l4 0 0 0c0,-1 0,-3 -1,-4 -1,-1 -2,-2 -4,-2 -3,0 -6,2 -7,3l-3 -6c5,-2 8,-3 12,-3 2,0 7,0 9,3 1,1 3,3 3,7l0 15 1 5 -9 0 -1 -2zm-2 -11c-1,0 -3,1 -4,2 0,1 -1,1 -1,2 0,2 2,3 4,3 0,0 0,0 1,0 0,0 1,0 2,-1l0 -6 -2 0zm40 8c2,0 2,-1 3,-3 0,0 1,-2 1,-6 0,-3 0,-5 -1,-7 -1,-1 -1,-2 -3,-2 -2,0 -3,1 -3,2 -1,2 -2,4 -2,7 0,3 1,5 2,6 0,2 1,3 3,3zm13 -29l-12 1c-2,1 -5,1 -7,2 -1,1 -2,3 -2,4 -1,2 -1,3 -1,4 1,-1 2,-3 3,-4 2,-1 4,-2 7,-2 3,0 6,1 9,4 2,2 4,6 4,11 0,5 -2,8 -4,11 -3,3 -6,4 -10,4 -4,0 -8,-1 -10,-4 -4,-4 -4,-9 -4,-14 0,-3 0,-7 0,-9 1,-5 3,-8 4,-9 3,-3 6,-4 9,-5l13 -2 1 8zm5 5l9 -1 0 30 -9 0 0 -29zm5 -5c-3,0 -5,-1 -5,-4 0,-3 2,-4 5,-4 3,0 5,1 5,4 0,3 -2,4 -5,4zm9 27c2,1 4,1 5,1 1,0 2,0 3,-1 1,0 1,-1 1,-2 0,-1 0,-2 -1,-2 0,-1 -2,-1 -3,-1l-3 0 1 -6 2 0c1,0 2,0 3,-1 1,0 1,-1 1,-2 0,-1 -1,-2 -1,-2 -1,-1 -2,-1 -3,-1 -1,0 -3,0 -5,2l-2 -7c2,0 3,-1 5,-1 1,0 2,0 3,0 3,0 6,0 9,2 1,1 3,3 3,6 0,1 0,2 -1,4 0,1 -1,2 -3,3 1,0 2,1 3,2 1,1 2,2 2,5 0,1 -1,2 -1,4 -1,1 -2,2 -3,3 -2,1 -6,2 -9,2 -2,0 -5,0 -8,-2l2 -6zm32 -23l0 11 7 0 0 -10 9 -1 0 30 -9 0 0 -12 -7 0 0 12 -9 0 0 -29 9 -1zm44 29c-1,0 -2,1 -4,1 -1,0 -2,1 -5,1 -3,0 -7,-1 -10,-4 -3,-2 -5,-7 -5,-12 0,-6 2,-9 4,-11 3,-3 6,-4 10,-4 4,0 7,1 8,3 2,2 3,4 3,7l0 2c0,0 0,3 -1,6l-14 0c0,1 1,3 1,4 2,2 3,2 5,2 3,0 4,0 6,-1l2 6zm-7 -18c0,-1 0,-5 -3,-5 -1,0 -1,0 -2,1 0,0 -1,0 -1,1 0,0 -1,2 -1,4l7 0 0 -1zm32 18c-3,2 -5,2 -7,2 -4,0 -8,-1 -11,-5 -2,-2 -3,-6 -3,-11 0,-3 0,-7 4,-11 1,-1 3,-3 5,-3 2,-1 4,-1 5,-1 1,0 3,0 5,1 0,0 1,0 2,0l-2 7c-1,-1 -2,-2 -4,-2 -1,0 -3,1 -4,3 -1,2 -1,4 -1,6 0,1 0,2 0,3 0,1 0,2 1,3 1,2 2,3 4,3 1,0 3,-1 4,-2l2 7zm20 1c-1,5 -3,8 -4,9 -3,3 -6,3 -8,3 -3,0 -5,0 -5,0l0 -7c1,1 2,1 4,1 1,0 2,0 3,-1 1,-1 2,-2 2,-3l-11 -31 10 -1 5 19 4 -19 8 1 -8 29zm-501 126c-12,0 -18,-9 -18,-22 0,-11 7,-19 18,-19 4,0 6,1 8,1l-3 8c0,0 -2,-1 -5,-1 -4,0 -7,5 -7,11 0,9 3,14 8,14 3,0 4,-2 5,-2l2 8c-2,1 -5,2 -8,2zm10 -17c0,-2 0,-7 4,-11 2,-2 5,-4 10,-4 5,0 8,3 10,4 4,4 4,9 4,11 0,5 -1,9 -3,11 -2,2 -3,3 -5,4 -2,1 -4,1 -6,1 -5,0 -9,-2 -11,-5 -2,-2 -3,-6 -3,-11zm10 0c0,3 0,5 0,7 1,1 1,2 2,2 0,1 1,1 2,1 1,0 3,0 3,-3 1,-1 1,-2 1,-3 0,-1 0,-2 0,-4 0,-1 0,-4 -1,-5 -1,-3 -2,-3 -3,-3 -1,0 -1,0 -2,0 -1,1 -1,2 -2,3 0,1 0,4 0,5zm31 -15l0 12 8 0 0 -10 9 -2 0 31 -9 0 0 -12 -8 0 0 12 -9 0 0 -29 9 -2zm20 31l4 -10c1,0 2,-2 3,-2 0,-1 -1,-1 -2,-2 -2,-1 -3,-3 -3,-6 0,-4 2,-6 3,-8 1,0 2,-1 3,-1 1,0 2,0 4,0l14 0 0 29 -9 0 0 -24 -1 0c-1,0 -1,0 -2,1 -1,0 -1,0 -1,0 -1,1 -2,2 -2,3 0,1 0,2 0,2 0,1 1,1 1,1 1,1 2,1 3,1l1 0 -1 6 -1 0c-1,0 -1,1 -2,2l-3 8 -9 0zm40 -31l0 10c0,1 1,2 1,3 1,1 1,1 2,1 2,0 4,-1 4,-1l0 -11 9 -2 0 31 -9 0 0 -12c-3,1 -5,2 -7,2 -1,0 -3,-1 -4,-1 -1,0 -2,-1 -3,-2 -2,-2 -2,-5 -2,-7l0 -9 9 -2zm31 0l0 12 7 0 0 -10 10 -2 0 31 -10 0 0 -12 -7 0 0 12 -9 0 0 -29 9 -2zm22 2l9 -2 0 31 -9 0 0 -29zm5 -5c-3,0 -5,-2 -5,-4 0,-3 2,-4 5,-4 3,0 5,1 5,4 0,2 -2,4 -5,4zm43 32c-1,1 -3,1 -4,2 -1,0 -2,0 -6,0 -2,0 -6,0 -9,-3 -3,-3 -5,-8 -5,-12 0,-6 2,-10 4,-12 3,-2 6,-4 10,-4 4,0 6,2 8,4 2,1 3,4 3,7l0 1c0,1 0,3 -1,6l-14 0c0,2 0,3 1,5 2,1 3,2 5,2 3,0 4,-1 5,-2l3 6zm-7 -18c0,-1 0,-4 -3,-4 -1,0 -1,0 -2,0 -1,0 -1,1 -1,2 0,0 -1,1 -1,3l7 0 0 -1zm9 14c1,0 1,0 2,0 1,0 1,0 2,-1 0,0 1,-2 2,-5 0,-5 1,-14 1,-17l21 0 0 29 -9 0 0 -23 -4 0c0,4 0,10 -1,14 0,2 -1,6 -4,8 -2,1 -4,1 -5,1 -2,0 -3,0 -5,0l0 -6zm55 4c-1,1 -2,1 -3,2 -1,0 -3,0 -6,0 -3,0 -7,0 -10,-3 -3,-3 -4,-8 -4,-12 0,-6 2,-10 4,-12 2,-2 5,-4 9,-4 4,0 7,2 9,4 1,1 2,4 2,7l0 1c0,1 0,3 0,6l-15 0c0,2 1,3 2,5 1,1 3,2 5,2 2,0 4,-1 5,-2l2 6zm-7 -18c0,-1 0,-4 -3,-4 0,0 -1,0 -2,0 0,0 -1,1 -1,2 0,0 -1,1 -1,3l7 0 0 -1zm22 7l0 13 -10 0 0 -29 10 -2 0 12 1 0 7 -12 9 1 -9 14 9 16 -9 0 -7 -13 -1 0zm18 -10l0 -6 24 0 -1 6 -7 0 0 23 -9 0 0 -23 -7 0zm39 17c4,0 5,-5 5,-9 0,-7 -2,-9 -5,-9 -2,0 -2,1 -3,1l0 16c1,1 2,1 3,1zm-12 -23l9 -2 0 3c1,-1 4,-3 7,-3 7,0 11,5 11,15 0,9 -6,16 -14,16 -1,0 -2,0 -4,0l0 12 -9 0 0 -41zm30 13c0,-2 0,-7 4,-11 2,-2 5,-4 10,-4 5,0 8,3 10,4 4,4 4,9 4,11 0,5 -1,9 -3,11 -1,2 -3,3 -5,4 -2,1 -4,1 -6,1 -5,0 -8,-2 -11,-5 -2,-2 -3,-6 -3,-11zm10 0c0,3 0,5 1,7 0,1 0,2 1,2 1,1 1,1 2,1 1,0 3,0 4,-3 0,-1 0,-2 0,-3 1,-1 1,-2 1,-4 0,-1 -1,-4 -1,-5 -1,-3 -3,-3 -4,-3 -1,0 -1,0 -2,0 0,1 -1,2 -1,3 -1,1 -1,4 -1,5zm42 14c-3,2 -5,2 -7,2 -4,0 -8,0 -11,-4 -2,-3 -3,-6 -3,-11 0,-4 1,-8 4,-11 1,-2 3,-3 5,-4 2,0 4,-1 5,-1 1,0 3,1 5,1 1,0 1,1 2,1l-2 6c-1,-1 -2,-1 -3,-1 -2,0 -3,0 -5,2 -1,2 -1,5 -1,7 0,1 0,1 0,2 0,1 0,2 1,3 1,3 3,3 4,3 1,0 3,0 4,-1l2 6zm1 -21l0 -6 25 0 -1 6 -7 0 0 23 -9 0 0 -23 -8 0zm42 20c-2,3 -4,3 -6,3 -3,0 -5,0 -7,-2 -1,-1 -3,-3 -3,-6 0,-3 2,-6 4,-7 2,-2 3,-2 5,-3 1,0 2,0 3,0l4 -1 0 0c0,-1 0,-2 -1,-3 0,-1 -2,-2 -4,-2 -3,0 -5,1 -7,3l-2 -6c4,-3 7,-4 11,-4 2,0 7,1 10,3 1,1 2,4 2,8l0 14 1 6 -9 0 -1 -3zm-2 -10c-1,0 -3,0 -4,2 0,0 0,1 0,2 0,2 1,3 3,3 0,0 1,0 1,0 1,0 1,-1 2,-1l0 -7 -2 1zm26 -18l0 12 7 0 0 -10 9 -2 0 31 -9 0 0 -12 -7 0 0 12 -10 0 0 -29 10 -2zm31 0l0 24 7 0 0 -22 9 -2 0 24 4 0 0 14 -8 1 0 -8 -21 0 0 -29 9 -2zm23 2l9 -2 0 31 -9 0 0 -29zm5 -5c-3,0 -5,-2 -5,-4 0,-3 2,-4 5,-4 3,0 5,1 5,4 0,2 -2,4 -5,4zm20 -1c-3,0 -4,-2 -4,-3 0,-2 1,-4 4,-4 3,0 4,2 4,4 0,1 -1,3 -4,3zm-11 0c-3,0 -4,-2 -4,-3 0,-2 1,-4 4,-4 3,0 4,2 4,4 0,1 -1,3 -4,3zm10 4l0 31 -9 0 0 -29 9 -2zm-555 85c2,2 4,2 5,2 1,0 2,0 3,-1 1,0 2,-1 2,-2 0,-1 -1,-2 -1,-2 -1,-1 -2,-1 -3,-1l-4 0 1 -6 3 0c0,0 1,0 2,-1 1,0 1,-1 1,-2 0,-1 -1,-2 -1,-2 -1,-1 -2,-1 -3,-1 -1,0 -3,0 -5,1l-1 -6c1,0 2,-1 4,-1 1,0 2,0 3,0 3,0 6,0 9,1 1,2 3,3 3,7 0,1 0,2 -1,3 0,1 -1,3 -3,4 1,0 2,1 3,1 1,2 2,3 2,5 0,2 -1,3 -1,5 -1,1 -2,2 -3,2 -2,2 -5,3 -8,3 -3,0 -6,-1 -9,-3l2 -6zm38 6c-3,2 -5,3 -7,3 -3,0 -5,-1 -7,-2 -1,-2 -3,-4 -3,-7 0,-3 2,-5 4,-7 2,-1 3,-2 5,-2 1,-1 2,-1 3,-1l4 0 0 -1c0,-1 0,-2 -1,-3 0,-1 -1,-2 -4,-2 -3,0 -5,2 -7,3l-2 -6c4,-2 8,-3 11,-3 2,0 7,0 10,3 1,1 2,3 2,7l0 14 1 6 -9 0 0 -2zm-3 -11c-1,0 -3,1 -4,2 0,0 0,1 0,2 0,2 1,3 3,3 0,0 1,0 1,0 1,0 1,-1 2,-1l0 -6 -2 0zm43 7l0 -17 -3 0c0,6 -1,9 -2,12 0,2 -1,3 -1,5l6 0zm10 -23l0 23 4 0 0 13 -8 1 0 -8 -16 0 0 7 -8 1 0 -14 2 0c1,-2 2,-4 3,-7 1,-5 2,-11 2,-16l21 0zm5 13c0,-2 1,-7 4,-11 2,-1 5,-3 10,-3 5,0 9,2 10,3 4,4 4,9 4,11 0,5 -1,9 -3,12 -1,1 -3,3 -5,3 -2,1 -4,2 -6,2 -5,0 -8,-2 -11,-5 -2,-3 -3,-7 -3,-12zm10 1c0,2 0,4 1,6 0,1 0,2 1,2 1,1 1,1 2,1 1,0 3,0 4,-3 0,-1 0,-2 0,-3 1,-1 1,-2 1,-3 0,-2 0,-4 -1,-6 -1,-3 -3,-3 -4,-3 0,0 -1,0 -2,1 0,0 -1,1 -1,2 -1,2 -1,4 -1,6zm42 13c-3,2 -5,3 -7,3 -3,0 -7,-1 -11,-5 -2,-2 -3,-6 -3,-11 0,-3 1,-8 4,-11 1,-2 3,-3 5,-3 2,-1 4,-1 5,-1 2,0 3,0 5,0 1,1 1,1 2,1l-2 6c-1,0 -2,-1 -3,-1 -2,0 -3,1 -5,2 -1,3 -1,5 -1,7 0,1 0,2 0,3 0,1 0,2 1,3 1,2 3,3 4,3 1,0 3,-1 4,-2l2 6zm1 -21l0 -6 25 0 -1 6 -7 0 0 23 -9 0 0 -23 -8 0zm44 23c-1,5 -3,7 -4,9 -3,3 -6,3 -8,3 -3,0 -4,0 -5,-1l0 -6c1,1 3,1 4,1 1,0 3,0 4,-1 0,-1 1,-2 1,-3l-11 -31 10 -1 6 19 4 -19 7 1 -8 29zm37 -29l0 29 -10 0 0 -23 -7 0 0 23 -9 0 0 -29 26 0zm14 -1l0 11 8 0 0 -10 9 -1 0 30 -9 0 0 -12 -8 0 0 12 -9 0 0 -29 9 -1zm22 1l10 -1 0 18 8 -17 9 0 0 29 -10 0 0 -16 -8 16 -9 0 0 -29zm51 12l-4 8 -3 0 -4 -7 0 16 -8 0 0 -29 8 0 6 11 6 -11 8 0 0 29 -9 0 0 -17zm14 -12l9 -1 0 18 9 -17 8 0 0 29 -9 0 0 -16 -8 16 -9 0 0 -29zm52 -1l0 24 7 0 0 -23 10 -1 0 24 3 0 0 13 -8 1 0 -8 -21 0 0 -29 9 -1zm23 1l9 -1 0 30 -9 0 0 -29zm5 -5c-3,0 -5,-1 -5,-4 0,-3 2,-4 5,-4 3,0 5,1 5,4 0,3 -2,4 -5,4zm19 4l0 11 7 0 0 -10 9 -1 0 30 -9 0 0 -12 -7 0 0 12 -9 0 0 -29 9 -1zm37 28c-3,2 -5,3 -7,3 -2,0 -5,-1 -7,-2 -1,-2 -3,-4 -3,-7 0,-3 2,-5 4,-7 2,-1 4,-2 5,-2 1,-1 2,-1 3,-1l4 0 0 -1c0,-1 0,-2 -1,-3 0,-1 -1,-2 -3,-2 -4,0 -6,2 -8,3l-2 -6c4,-2 8,-3 12,-3 1,0 6,0 9,3 1,1 2,3 2,7l0 14 1 6 -9 0 0 -2zm-3 -11c-1,0 -3,1 -3,2 -1,0 -1,1 -1,2 0,2 1,3 3,3 1,0 1,0 1,0 1,0 1,-1 2,-1l0 -6 -2 0zm35 -4l-4 8 -2 0 -4 -7 0 16 -8 0 0 -29 8 0 6 11 6 -11 8 0 0 29 -10 0 0 -17zm15 -12l9 -1 0 18 9 -17 8 0 0 29 -9 0 0 -16 -9 16 -8 0 0 -29z"/>
   <path fill="#2B2A29" fill-rule="nonzero" d="M37 413l5 -12c1,-2 2,-3 4,-4 -1,0 -2,-1 -3,-1 -1,-1 -2,-1 -3,-2 -1,-2 -2,-5 -2,-7 0,-4 2,-7 4,-9 3,-3 7,-4 11,-4l15 0 0 40 -11 0 0 -32 -3 0c-1,0 -3,1 -4,2 -1,0 -1,1 -1,1 0,1 -1,2 -1,3 0,1 1,3 2,3 1,1 2,2 3,2l3 0 -2 7 0 0c-1,0 -2,1 -2,2l-5 13 -10 -2zm46 -12l0 13 -10 0 0 -30 10 -1 0 12 1 0 7 -12 9 1 -9 13 9 16 -9 1 -7 -13 -1 0zm20 -17l9 -1 0 31 -9 0 0 -30zm5 -4c-3,0 -5,-2 -5,-4 0,-3 2,-5 5,-5 3,0 5,2 5,5 0,2 -2,4 -5,4zm29 32c-2,2 -5,2 -7,2 -3,0 -7,0 -10,-4 -2,-3 -4,-6 -4,-11 0,-4 1,-8 4,-11 2,-2 3,-3 6,-4 1,-1 3,-1 5,-1 1,0 2,1 4,1 1,0 1,0 2,1l-2 6c-1,-1 -2,-1 -3,-1 -2,0 -3,0 -4,2 -2,2 -2,5 -2,6 0,1 0,2 0,3 0,1 1,2 1,3 1,3 3,3 4,3 1,0 3,0 4,-1l2 6zm13 -29l0 12 8 0 0 -11 9 -1 0 31 -9 0 0 -13 -8 0 0 13 -9 0 0 -30 9 -1zm37 28c-2,3 -5,3 -7,3 -2,0 -4,0 -6,-2 -2,-1 -3,-3 -3,-7 0,-3 1,-5 4,-7 1,-1 3,-1 5,-2 1,0 2,0 3,0l3 -1 0 0c0,-1 0,-2 0,-3 -1,-2 -2,-2 -4,-2 -3,0 -6,1 -8,3l-2 -7c4,-2 8,-3 12,-3 2,0 6,0 9,3 1,1 3,3 3,8l0 14 1 6 -9 0 -1 -3zm-2 -10c-1,0 -3,0 -4,1 -1,1 -1,2 -1,3 0,2 2,3 4,3 0,0 0,0 1,0 0,-1 1,-1 1,-1l0 -7 -1 1zm36 0l0 13 -9 0 0 -30 9 -1 0 12 1 0 7 -12 9 1 -8 13 8 16 -9 1 -7 -13 -1 0zm19 -3c0,-3 1,-7 4,-11 2,-2 5,-4 10,-4 5,0 9,2 10,4 4,3 4,8 4,11 0,5 -1,9 -3,11 -1,2 -3,3 -5,4 -2,1 -4,1 -6,1 -5,0 -8,-2 -10,-5 -3,-2 -4,-6 -4,-11zm10 0c0,3 0,5 1,7 0,1 0,1 1,2 1,1 1,1 2,1 1,0 3,0 4,-3 0,-1 0,-2 0,-3 1,-1 1,-3 1,-4 0,-2 0,-4 -1,-6 -1,-2 -3,-3 -4,-3 0,0 -1,1 -2,1 0,1 -1,1 -1,2 -1,2 -1,4 -1,6zm32 -15l0 12 7 0 0 -11 9 -1 0 31 -9 0 0 -13 -7 0 0 13 -10 0 0 -30 10 -1zm42 29c-3,2 -6,2 -8,2 -3,0 -7,0 -10,-4 -2,-3 -4,-6 -4,-11 0,-4 1,-8 4,-11 2,-2 4,-3 6,-4 1,-1 3,-1 5,-1 1,0 2,1 4,1 1,0 1,0 2,1l-2 6c-1,-1 -2,-1 -3,-1 -2,0 -3,0 -4,2 -2,2 -2,5 -2,6 0,1 0,2 0,3 0,1 1,2 1,3 1,3 3,3 4,3 2,0 3,0 4,-1l3 6zm19 2c-1,5 -3,7 -4,8 -2,3 -6,4 -8,4 -3,0 -4,-1 -5,-1l0 -6c2,0 3,1 4,1 1,0 3,-1 4,-2 1,-1 1,-2 1,-3l-11 -31 10 -1 6 20 4 -20 7 1 -8 30zm8 -6c1,0 1,0 2,0 1,0 1,0 2,-1 0,-1 1,-2 2,-5 0,-5 1,-14 1,-18l21 0 0 30 -9 0 0 -23 -4 0c0,4 0,10 -1,14 0,1 -1,6 -4,8 -2,1 -4,1 -5,1 -2,0 -3,0 -5,0l0 -6zm33 -24l9 -1 0 25 2 0c2,0 3,-1 3,-1 1,0 1,-1 1,-2 0,0 0,-1 0,-2 0,-1 0,-2 -1,-3 0,0 0,0 -1,0 0,-1 -1,-1 -1,-1l-1 0 1 -6 1 0c3,0 6,1 8,3 1,1 2,2 3,3 0,2 1,3 1,5 0,1 -1,3 -1,4 -1,2 -2,3 -3,4 -2,1 -5,2 -7,2l-14 0 0 -30zm26 7l0 -7 25 0 -1 7 -7 0 0 23 -9 0 0 -23 -8 0zm42 20c-2,3 -5,3 -6,3 -3,0 -5,0 -7,-2 -2,-1 -3,-3 -3,-7 0,-3 1,-5 4,-7 2,-1 3,-1 5,-2 1,0 2,0 3,0l4 -1 0 0c0,-1 0,-2 -1,-3 -1,-2 -2,-2 -4,-2 -3,0 -5,1 -7,3l-2 -7c4,-2 7,-3 11,-3 2,0 7,0 9,3 2,1 3,3 3,8l0 14 1 6 -9 0 -1 -3zm-2 -10c-1,0 -3,0 -4,1 0,1 0,2 0,3 0,2 1,3 3,3 0,0 1,0 1,0 1,-1 1,-1 2,-1l0 -7 -2 1zm26 -18l0 24 7 0 0 -23 9 -1 0 24 3 0 0 14 -8 1 0 -8 -21 0 0 -30 10 -1zm22 1l10 -1 0 31 -10 0 0 -30zm5 -4c-3,0 -5,-2 -5,-4 0,-3 2,-5 5,-5 3,0 5,2 5,5 0,2 -2,4 -5,4zm8 33l4 -9c0,-1 1,-2 3,-3 -1,0 -2,0 -3,-1 -2,-2 -3,-4 -3,-6 0,-5 2,-7 4,-8 1,0 2,-1 3,-1 1,0 2,-1 4,-1l14 0 0 30 -9 0 0 -24 -1 0c-1,0 -2,0 -2,0 -1,1 -1,1 -2,1 -1,1 -1,2 -1,3 0,1 0,1 0,2 0,0 0,1 1,1 1,1 2,1 3,1l1 0 -1 6 -1 0c-1,0 -2,1 -2,2l-3 8 -9 -1zm-398 24l0 39 -10 0 0 -32 -10 0 0 32 -10 0 0 -39 30 0zm5 23c0,-2 0,-7 4,-11 2,-1 5,-3 10,-3 5,0 8,2 10,3 3,4 4,9 4,11 0,5 -1,9 -3,12 -2,1 -3,2 -5,3 -2,1 -4,1 -6,1 -6,0 -9,-2 -11,-4 -2,-3 -3,-7 -3,-12zm9 1c0,2 1,4 1,6 1,1 1,2 2,2 0,1 1,1 2,1 1,0 2,0 3,-3 1,-1 1,-2 1,-3 0,-1 0,-2 0,-3 0,-2 0,-5 -1,-6 -1,-3 -2,-3 -3,-3 -1,0 -2,0 -2,1 -1,0 -1,1 -2,2 0,1 -1,4 -1,6zm35 9c0,0 1,0 2,0 1,-1 1,-2 1,-3 0,-1 0,-2 -1,-3 0,0 -1,0 -2,0l-2 0 2 -5 0 0c0,0 0,0 1,0 0,0 1,-1 1,-1 0,-1 0,-2 0,-2 0,-1 0,-2 0,-3 -1,0 -2,-1 -3,-1l-2 0 0 18 3 0zm-12 -23l13 0c3,0 5,0 8,1 1,1 1,2 2,3 0,1 1,2 1,3 0,2 -1,4 -3,6 -1,0 -1,0 -2,1 1,0 3,1 3,2 1,0 1,1 2,2 0,0 0,2 0,3 0,1 0,2 -1,3 0,1 -1,2 -2,3 -2,2 -5,2 -7,2l-14 0 0 -29zm37 -1l0 11 8 0 0 -10 9 -1 0 30 -9 0 0 -12 -8 0 0 12 -9 0 0 -29 9 -1zm37 27c-2,3 -5,3 -7,3 -2,0 -4,0 -6,-2 -2,-1 -3,-3 -3,-6 0,-3 1,-6 4,-7 1,-1 3,-2 5,-2 1,-1 2,-1 3,-1l4 -1 0 0c0,-1 0,-2 -1,-3 -1,-1 -2,-2 -4,-2 -3,0 -6,1 -7,3l-3 -6c5,-3 8,-3 12,-3 2,0 7,0 9,2 1,2 3,4 3,8l0 14 1 6 -9 0 -1 -3zm-2 -10c-1,0 -3,1 -4,2 0,0 -1,1 -1,2 0,2 2,3 4,3 0,0 0,0 1,0 0,0 1,-1 2,-1l0 -6 -2 0zm53 -16l0 29 -9 0 0 -23 -8 0 0 23 -9 0 0 -29 26 0zm27 27c-1,1 -2,1 -3,2 -1,0 -3,0 -6,0 -2,0 -6,0 -10,-3 -3,-3 -4,-7 -4,-12 0,-6 2,-9 4,-12 2,-2 5,-3 9,-3 4,0 7,1 9,3 1,1 3,4 3,7l0 1c0,1 0,4 -1,6l-14 0c0,2 0,3 1,5 1,2 3,2 5,2 2,0 4,-1 5,-2l2 6zm-7 -18c0,-1 0,-4 -3,-4 0,0 -1,0 -1,0 -1,1 -1,1 -2,2 0,0 0,1 -1,4l7 0 0 -2zm25 14c4,0 5,-5 5,-9 0,-7 -2,-9 -5,-9 -2,0 -3,1 -3,1l0 16c0,1 2,1 3,1zm-12 -23l9 -1 0 2c1,-1 3,-2 6,-2 7,0 12,4 12,14 0,9 -6,16 -14,16 -1,0 -3,1 -4,0l0 12 -9 0 0 -41zm53 27c-1,1 -2,1 -3,2 -1,0 -3,0 -6,0 -3,0 -7,0 -10,-3 -3,-3 -4,-7 -4,-12 0,-6 2,-9 4,-12 2,-2 5,-3 9,-3 4,0 7,1 9,3 1,1 2,4 2,7l0 1c0,1 0,4 0,6l-15 0c0,2 1,3 2,5 1,2 2,2 5,2 2,0 4,-1 5,-2l2 6zm-7 -18c0,-1 0,-4 -3,-4 0,0 -1,0 -2,0 0,1 -1,1 -1,2 0,0 -1,1 -1,4l7 0 0 -2zm24 14c1,0 2,0 2,0 1,-1 2,-2 2,-3 0,-1 -1,-2 -1,-3 -1,0 -2,0 -2,0l-2 0 1 -5 0 0c1,0 1,0 1,0 1,0 1,-1 1,-1 1,-1 1,-2 1,-2 0,-1 0,-2 -1,-3 -1,0 -2,-1 -3,-1l-1 0 0 18 2 0zm-12 -23l14 0c2,0 5,0 7,1 1,1 2,2 2,3 1,1 1,2 1,3 0,2 -1,4 -3,6 0,0 -1,0 -2,1 2,0 3,1 4,2 1,0 1,1 1,2 1,0 1,2 1,3 0,1 -1,2 -1,3 -1,1 -1,2 -2,3 -2,2 -6,2 -8,2l-14 0 0 -29zm29 0l9 -1 0 30 -9 0 0 -29zm5 -5c-4,0 -5,-1 -5,-4 0,-3 1,-4 5,-4 3,0 4,1 4,4 0,3 -1,4 -4,4zm21 28c4,0 6,-5 6,-9 0,-7 -3,-9 -6,-9 -1,0 -2,1 -2,1l0 16c0,1 1,1 2,1zm-12 -23l10 -1 0 2c1,-1 3,-2 6,-2 7,0 11,4 11,14 0,9 -5,16 -14,16 0,0 -2,1 -3,0l0 12 -10 0 0 -41zm41 17l0 12 -9 0 0 -29 9 -1 0 11 1 0 7 -11 9 0 -9 14 9 16 -9 0 -7 -12 -1 0zm35 9c-2,3 -5,3 -7,3 -2,0 -4,0 -6,-2 -2,-1 -3,-3 -3,-6 0,-3 1,-6 4,-7 1,-1 3,-2 5,-2 1,-1 2,-1 3,-1l3 -1 0 0c0,-1 0,-2 0,-3 -1,-1 -2,-2 -4,-2 -3,0 -6,1 -8,3l-2 -6c4,-3 8,-3 12,-3 2,0 6,0 9,2 1,2 3,4 3,8l0 14 1 6 -9 0 -1 -3zm-2 -10c-1,0 -3,1 -4,2 -1,0 -1,1 -1,2 0,2 2,3 4,3 0,0 0,0 1,0 0,0 1,-1 1,-1l0 -6 -1 0z"/>
  </g>
 </g>
</svg>
